<svg width="19" height="24" viewBox="0 0 19 24" fill="none" xmlns="http://www.w3.org/2000/svg">
<path d="M13.125 9.64279C13.125 10.6658 12.7299 11.6468 12.0267 12.3702C11.3234 13.0936 10.3696 13.4999 9.375 13.4999C8.38044 13.4999 7.42661 13.0936 6.72335 12.3702C6.02009 11.6468 5.625 10.6658 5.625 9.64279C5.625 8.61981 6.02009 7.63873 6.72335 6.91538C7.42661 6.19202 8.38044 5.78564 9.375 5.78564C10.3696 5.78564 11.3234 6.19202 12.0267 6.91538C12.7299 7.63873 13.125 8.61981 13.125 9.64279Z" stroke="#8A7CCB" stroke-width="2" stroke-linecap="round" stroke-linejoin="round"/>
<path d="M17.6667 9.6C17.6667 13.8143 15.5156 17.1798 13.2748 19.5396C12.1598 20.7138 11.0423 21.6173 10.2038 22.2266C9.85797 22.4779 9.56105 22.6781 9.33333 22.8255C9.10562 22.6781 8.8087 22.4779 8.46283 22.2266C7.62438 21.6173 6.50683 20.7138 5.39183 19.5396C3.15104 17.1798 1 13.8143 1 9.6C1 7.31019 1.88462 5.11964 3.45066 3.50885C5.01578 1.89902 7.13243 1 9.33333 1C11.5342 1 13.6509 1.89902 15.216 3.50885C16.782 5.11964 17.6667 7.31019 17.6667 9.6Z" stroke="#8A7CCB" stroke-width="2" stroke-linecap="round" stroke-linejoin="round"/>
</svg>
