<svg width="24" height="24" viewBox="0 0 24 24" fill="none" xmlns="http://www.w3.org/2000/svg">
<path d="M20.147 3.4875C17.9844 1.2375 15.1081 0 12.0441 0C5.73246 0 0.595346 5.334 0.595346 11.892C0.595346 13.9875 1.12408 16.0365 2.12521 17.8365L0.5 24L6.57179 22.3455C8.24612 23.292 10.1299 23.7945 12.0426 23.7945H12.047C18.3586 23.7945 23.5 18.4605 23.5 11.9025C23.5 8.724 22.3082 5.739 20.1456 3.489L20.147 3.4875ZM12.047 21.7875C10.3365 21.7875 8.66073 21.309 7.19876 20.409L6.85061 20.193L3.24769 21.1725L4.20982 17.526L3.98445 17.151C3.02666 15.5805 2.52682 13.7625 2.52682 11.892C2.52682 6.441 6.79716 2.0055 12.0527 2.0055C14.5938 2.0055 16.9876 3.0375 18.7833 4.902C20.5804 6.7725 21.5685 9.252 21.5685 11.895C21.5642 17.3505 17.2939 21.7875 12.047 21.7875ZM17.2664 14.382C16.9818 14.232 15.5733 13.515 15.3118 13.416C15.0503 13.317 14.8597 13.266 14.6661 13.566C14.4768 13.8615 13.9264 14.532 13.7588 14.733C13.5913 14.9295 13.4251 14.958 13.1405 14.808C12.8559 14.658 11.9299 14.3445 10.8378 13.332C9.98835 12.5445 9.41194 11.5695 9.24436 11.274C9.07679 10.9785 9.22558 10.815 9.37149 10.6695C9.50295 10.5375 9.65608 10.323 9.80055 10.149C9.94501 9.975 9.98979 9.8535 10.0851 9.6525C10.1805 9.456 10.1343 9.282 10.062 9.132C9.98979 8.982 9.41627 7.5195 9.18224 6.924C8.95255 6.342 8.71274 6.423 8.53649 6.4125C8.36892 6.4035 8.17967 6.4035 7.99042 6.4035C7.80117 6.4035 7.48913 6.4785 7.22766 6.774C6.96618 7.0695 6.22508 7.791 6.22508 9.2535C6.22508 10.716 7.24933 12.1275 7.39379 12.3285C7.53825 12.525 9.41194 15.5295 12.2824 16.815C12.9643 17.1195 13.4974 17.3025 13.912 17.4435C14.5982 17.6685 15.2208 17.6355 15.7134 17.5605C16.2638 17.4765 17.4065 16.8435 17.6463 16.149C17.8862 15.4545 17.8862 14.8605 17.8139 14.7375C17.746 14.6055 17.5568 14.532 17.2679 14.3805L17.2664 14.382Z" fill="white"/>
</svg>
